<?xml version="1.0" standalone="no"?>
<!DOCTYPE svg PUBLIC "-//W3C//DTD SVG 20010904//EN"
 "http://www.w3.org/TR/2001/REC-SVG-20010904/DTD/svg10.dtd">
<svg version="1.0" xmlns="http://www.w3.org/2000/svg"
 width="512.000000pt" height="512.000000pt" viewBox="0 0 512.000000 512.000000"
 preserveAspectRatio="xMidYMid meet">
<metadata>
Created by potrace 1.11, written by Peter Selinger 2001-2013
</metadata>
<g transform="translate(0.000000,512.000000) scale(0.100000,-0.100000)"
fill="#000000" stroke="none">
<path d="M4179 4701 c-145 -47 -274 -184 -426 -451 -78 -136 -175 -321 -171
-325 6 -5 108 -55 113 -55 2 0 4 10 3 23 -2 24 11 56 69 172 142 282 274 454
392 511 75 36 166 38 230 5 66 -34 136 -105 161 -162 32 -76 28 -196 -9 -284
-49 -115 -156 -293 -209 -351 -24 -25 -56 -74 -51 -77 8 -5 80 -37 83 -37 8 0
108 132 150 198 65 101 101 169 132 252 24 65 28 89 28 185 1 101 -2 115 -27
168 -32 63 -110 150 -172 189 -91 56 -199 71 -296 39z"/>
<path d="M3200 3874 c-184 -68 -282 -264 -206 -412 24 -46 32 -47 75 -6 37 36
38 39 23 62 -32 49 -14 141 38 193 90 90 203 71 332 -56 143 -142 159 -249 54
-356 l-36 -36 126 -128 c125 -126 126 -127 147 -108 31 26 67 65 67 71 0 3
-35 40 -77 82 -113 111 -107 99 -78 162 45 99 30 221 -41 316 -51 69 -154 161
-212 188 -56 27 -173 42 -212 28z"/>
<path d="M2959 3136 c-38 -26 -69 -79 -69 -118 0 -33 45 -99 86 -127 69 -48
178 -2 203 85 16 57 -28 136 -96 172 -35 19 -86 14 -124 -12z"/>
<path d="M2538 2796 c-57 -17 -123 -69 -155 -123 -22 -38 -28 -62 -30 -115 -2
-57 2 -72 27 -111 65 -103 174 -152 393 -176 4 -1 7 -17 7 -37 0 -62 -50 -123
-137 -168 l-33 -16 26 -40 c15 -22 32 -40 38 -40 22 0 101 56 142 102 46 50
70 109 73 181 1 12 9 17 32 17 58 0 111 24 165 72 43 40 104 122 104 141 0 7
-80 61 -83 56 -2 -2 -16 -24 -31 -49 -52 -81 -104 -120 -161 -120 -30 0 -32 3
-40 70 -10 90 -14 107 -35 164 -56 148 -182 228 -302 192z"/>
<path d="M2063 2239 c-63 -40 -87 -113 -57 -171 36 -70 106 -108 172 -94 33 8
86 59 100 96 21 56 -24 140 -95 178 -33 18 -84 14 -120 -9z"/>
<path d="M1490 2018 c-169 -59 -304 -221 -505 -603 -32 -60 -64 -119 -72 -130
-22 -32 -16 -42 43 -69 69 -32 68 -32 60 -2 -8 31 115 274 217 430 159 241
299 322 457 263 74 -27 161 -115 184 -185 33 -98 12 -224 -62 -369 -36 -71
-127 -207 -184 -275 l-39 -47 48 -21 48 -21 23 28 c52 63 153 213 191 285 72
132 94 209 95 323 1 94 -1 105 -32 167 -20 40 -55 88 -90 123 -115 113 -249
150 -382 103z"/>
<path d="M510 1204 c-117 -54 -191 -162 -192 -281 0 -96 50 -193 154 -294 127
-123 266 -159 388 -100 29 14 47 18 55 11 7 -6 50 -48 96 -93 l84 -84 44 43
44 43 -127 127 -126 127 -22 -19 c-13 -10 -25 -22 -28 -25 -3 -4 -21 -16 -40
-28 -84 -50 -186 -15 -300 105 -104 109 -131 185 -96 267 18 42 74 95 112 106
44 12 104 5 134 -17 l25 -19 43 42 42 42 -39 26 c-78 52 -168 59 -251 21z"/>
</g>
</svg>
