<?xml version="1.0" standalone="no"?>
<!DOCTYPE svg PUBLIC "-//W3C//DTD SVG 20010904//EN"
 "http://www.w3.org/TR/2001/REC-SVG-20010904/DTD/svg10.dtd">
<svg version="1.0" xmlns="http://www.w3.org/2000/svg"
 width="512.000000pt" height="512.000000pt" viewBox="0 0 512.000000 512.000000"
 preserveAspectRatio="xMidYMid meet">
<metadata>
Created by potrace 1.11, written by Peter Selinger 2001-2013
</metadata>
<g transform="translate(0.000000,512.000000) scale(0.100000,-0.100000)"
fill="#000000" stroke="none">
<path d="M5075 3882 c-173 -98 -265 -252 -266 -445 0 -109 62 -334 115 -412
48 -71 159 -175 187 -175 5 0 9 221 9 525 0 289 -3 525 -7 524 -5 0 -22 -8
-38 -17z"/>
<path d="M2755 3629 c-444 -91 -742 -378 -801 -772 -9 -57 -9 -174 0 -240 23
-179 144 -474 249 -603 99 -123 135 -163 218 -245 123 -122 257 -234 431 -361
135 -98 136 -100 124 -126 -88 -198 -201 -296 -410 -356 -97 -29 -117 -33
-191 -42 -27 -3 -61 -8 -75 -10 -22 -4 -297 -6 -317 -3 -30 5 -34 -2 -29 -48
3 -27 8 -75 11 -108 16 -168 25 -238 30 -243 2 -2 64 -4 137 -4 157 -1 267 7
354 27 12 3 38 7 59 11 21 3 49 10 62 15 13 5 23 7 23 4 0 -8 197 63 257 93
97 48 182 110 256 185 64 66 160 199 188 260 12 28 33 35 44 17 10 -16 202
-106 275 -129 98 -31 115 -33 250 -36 110 -2 155 2 295 29 143 27 432 151 582
249 l62 40 -13 31 c-42 99 -155 336 -160 336 -2 0 -38 -22 -79 -49 -79 -52
-294 -161 -319 -161 -8 0 -18 -4 -23 -9 -6 -6 -55 -22 -110 -36 -188 -50 -339
-35 -475 46 -107 63 -112 69 -96 104 8 17 23 50 34 75 36 82 50 114 96 216
132 296 195 572 190 834 -3 139 -7 181 -29 285 -44 214 -126 371 -260 500
-116 112 -265 190 -443 232 -73 18 -296 13 -397 -8z"/>
<path d="M310 2619 c-99 -25 -204 -79 -263 -135 l-47 -46 0 -362 0 -363 29
-40 c65 -89 174 -159 291 -185 118 -26 266 -6 397 55 183 85 286 243 287 442
0 112 -37 265 -94 380 -107 221 -339 319 -600 254z"/>
</g>
</svg>
