<?xml version="1.0" standalone="no"?>
<!DOCTYPE svg PUBLIC "-//W3C//DTD SVG 20010904//EN"
    "http://www.w3.org/TR/2001/REC-SVG-20010904/DTD/svg10.dtd">
<svg version="1.0" xmlns="http://www.w3.org/2000/svg"
     width="1756.000000pt" height="1013.000000pt" viewBox="0 0 1756.000000 1013.000000"
     preserveAspectRatio="xMidYMid meet">

    <g transform="translate(0.000000,1013.000000) scale(0.100000,-0.100000)" stroke="none">
        <path d="M12095 9649 c-97 -14 -110 -16 -110 -18 0 -1 -22 -4 -50 -6 -67 -6
-92 -10 -145 -26 -25 -7 -53 -11 -63 -10 -10 1 -33 -5 -52 -13 -18 -9 -48 -18
-66 -20 -19 -3 -61 -14 -94 -25 -33 -11 -67 -21 -75 -21 -16 0 -204 -75 -230
-91 -8 -5 -23 -12 -32 -15 -10 -4 -18 -10 -18 -15 0 -5 -9 -9 -19 -9 -11 0
-23 -4 -26 -10 -3 -5 -17 -10 -31 -10 -14 0 -27 -7 -31 -16 -3 -8 -29 -26 -58
-39 -28 -13 -58 -31 -65 -40 -7 -8 -27 -22 -44 -30 -17 -8 -48 -31 -69 -50
-21 -19 -45 -35 -53 -35 -8 0 -14 -7 -14 -15 0 -8 -6 -15 -14 -15 -7 0 -24
-10 -37 -22 -36 -33 -76 -58 -94 -58 -8 0 -15 -6 -15 -13 0 -7 -34 -37 -76
-67 -42 -30 -85 -63 -95 -72 -11 -10 -22 -18 -25 -18 -3 0 -27 -18 -53 -40
-26 -22 -53 -40 -59 -40 -7 0 -12 -3 -12 -7 0 -11 -53 -65 -80 -83 -13 -8 -30
-23 -39 -32 -8 -10 -20 -18 -26 -18 -5 0 -19 -13 -30 -30 -24 -33 -169 -194
-202 -224 -13 -11 -23 -24 -23 -28 0 -5 -15 -24 -32 -43 -47 -48 -68 -74 -68
-82 0 -5 -16 -26 -35 -47 -19 -22 -35 -45 -35 -52 0 -6 -6 -14 -13 -17 -7 -2
-21 -22 -32 -43 -11 -22 -30 -49 -42 -61 -29 -28 -33 -122 -7 -144 9 -7 20
-23 25 -36 9 -25 38 -30 57 -11 6 6 8 17 3 27 -5 9 -11 45 -13 79 -4 58 -2 65
19 79 12 8 20 20 17 25 -3 5 12 25 35 44 23 20 41 44 41 56 0 11 8 22 18 24
18 5 62 62 62 82 0 6 13 18 30 27 16 8 34 25 40 36 7 11 21 30 32 41 11 11 17
25 15 33 -4 9 1 11 14 8 10 -3 19 -1 19 4 0 6 42 53 93 105 87 90 143 142 253
233 26 22 56 48 66 58 10 9 24 17 31 17 16 0 57 42 57 58 0 7 9 12 20 12 11 0
20 7 20 15 0 9 12 18 28 21 16 3 54 27 85 52 30 26 72 58 92 72 20 14 42 30
48 35 25 21 106 75 111 75 10 0 120 74 128 86 4 6 29 19 55 29 26 10 55 23 63
30 8 7 32 20 53 28 20 9 37 21 37 28 0 6 6 9 14 6 8 -3 33 3 55 14 22 10 47
19 56 19 8 0 23 4 33 9 39 20 100 41 154 51 32 6 60 16 64 21 3 5 9 7 12 5 4
-2 37 2 72 10 36 9 112 24 169 35 57 10 109 23 116 29 7 5 15 6 21 1 5 -6 42
-4 89 4 80 12 522 14 542 2 6 -4 43 -9 84 -12 113 -9 226 -40 319 -87 47 -23
91 -48 98 -55 7 -7 19 -10 27 -7 9 4 15 0 15 -10 0 -9 8 -16 20 -16 11 0 20
-4 20 -9 0 -5 15 -24 33 -42 19 -19 39 -44 46 -57 17 -32 16 -151 -2 -168 -4
-4 -4 -17 -1 -29 3 -13 -1 -27 -10 -34 -9 -8 -16 -20 -16 -27 0 -8 -4 -14 -10
-14 -5 0 -10 -9 -10 -20 0 -11 -4 -20 -10 -20 -5 0 -10 -6 -10 -13 0 -7 -8
-31 -19 -53 -27 -57 -33 -82 -21 -89 13 -8 55 24 69 55 25 53 36 70 47 70 18
0 45 36 38 53 -3 9 9 31 32 57 27 30 34 44 26 52 -7 7 -8 17 -2 28 16 29 20
119 6 132 -6 7 -20 33 -29 57 -20 48 -85 130 -104 131 -7 0 -13 5 -13 10 0 6
-7 10 -15 10 -7 0 -18 6 -22 13 -9 14 -37 30 -108 64 -27 13 -67 33 -89 44
-51 28 -80 36 -211 61 -92 17 -155 21 -395 23 -157 1 -312 -2 -345 -6z"/>
        <path d="M2035 9444 c-16 -2 -70 -9 -120 -15 -49 -6 -116 -13 -150 -14 -59 -3
-156 -22 -245 -49 -25 -8 -85 -26 -135 -41 -49 -15 -97 -34 -106 -41 -8 -8
-21 -14 -28 -14 -13 0 -97 -35 -121 -50 -8 -6 -26 -15 -40 -21 -14 -6 -39 -21
-57 -35 -17 -13 -36 -24 -41 -24 -4 0 -26 -15 -48 -33 -21 -19 -55 -39 -74
-46 -20 -6 -50 -25 -68 -41 -18 -17 -36 -30 -40 -30 -4 0 -21 -12 -38 -27 -18
-16 -56 -48 -85 -73 -81 -66 -207 -199 -236 -247 -14 -24 -29 -43 -34 -43 -5
0 -9 -7 -9 -15 0 -9 -7 -18 -15 -21 -8 -4 -15 -19 -15 -35 0 -22 9 -35 44 -59
25 -16 47 -30 51 -30 4 0 13 -6 20 -12 48 -43 84 -63 95 -51 21 22 20 52 -2
73 -29 26 -75 50 -100 50 -27 0 -27 0 46 110 15 24 40 54 55 67 14 13 35 32
46 42 52 47 124 108 150 128 92 70 167 123 173 123 4 0 18 10 32 23 14 12 43
31 65 42 22 11 51 30 64 43 13 12 32 22 42 22 10 0 22 6 26 13 9 15 45 33 148
73 39 15 75 31 82 36 15 12 142 47 208 58 28 5 75 16 105 25 30 10 69 18 85
20 17 1 53 5 80 8 66 9 208 20 270 21 28 1 56 5 63 9 7 5 14 3 17 -5 4 -9 28
-14 73 -15 147 -5 313 -32 364 -59 14 -8 37 -14 50 -14 14 0 33 -9 43 -20 10
-11 37 -25 59 -31 22 -6 53 -20 67 -30 15 -10 30 -19 34 -19 4 0 20 -11 37
-25 16 -14 38 -25 49 -25 10 0 19 -4 19 -9 0 -5 11 -12 24 -15 13 -3 31 -17
40 -31 9 -14 25 -25 34 -25 10 0 32 -15 48 -32 16 -18 41 -39 56 -47 17 -9 38
-37 57 -76 17 -34 37 -68 46 -75 8 -7 15 -17 15 -23 0 -5 11 -34 25 -62 46
-99 59 -214 32 -285 -3 -8 -8 -40 -11 -70 -7 -60 -41 -166 -63 -191 -7 -8 -13
-22 -13 -31 0 -18 -42 -103 -63 -126 -9 -9 -18 -29 -22 -43 -3 -14 -18 -37
-33 -51 -15 -14 -37 -44 -50 -68 -43 -82 -57 -104 -82 -132 -46 -51 -60 -68
-60 -73 0 -7 -63 -97 -82 -117 -10 -10 -18 -21 -18 -26 0 -10 -127 -153 -199
-224 -24 -24 -51 -55 -60 -69 -31 -49 -75 -99 -87 -99 -8 0 -24 -18 -36 -40
-13 -22 -28 -40 -35 -40 -6 0 -21 -12 -32 -27 -46 -63 -70 -90 -151 -172 -47
-47 -107 -110 -133 -139 -26 -28 -50 -52 -52 -52 -3 0 -74 -69 -158 -152 -184
-182 -378 -367 -389 -370 -8 -3 -90 -75 -171 -151 -22 -20 -42 -36 -44 -34 -2
3 -5 105 -7 228 -2 123 -5 224 -6 224 -5 0 -6 141 -1 150 8 15 7 156 -1 162
-5 2 -5 10 -1 16 10 15 12 137 2 137 -14 0 -20 65 -7 75 17 13 24 145 7 145
-9 0 -9 3 0 14 8 9 10 50 6 127 -6 139 -6 125 1 177 5 32 2 48 -10 61 -15 17
-15 19 -1 24 13 6 15 56 16 419 0 227 1 424 1 438 0 55 -14 150 -23 156 -6 4
-6 10 0 18 15 17 7 291 -9 344 -11 34 -18 42 -37 42 -18 0 -23 -5 -21 -17 1
-10 -1 -23 -5 -30 -9 -14 -11 -168 -4 -268 6 -76 10 -234 7 -250 -1 -5 -1 -41
0 -80 1 -60 2 -660 1 -940 0 -49 0 -162 0 -250 0 -88 0 -315 -1 -505 0 -344 6
-770 15 -970 3 -58 7 -139 8 -180 2 -41 6 -104 10 -140 6 -67 20 -289 19 -325
0 -11 5 -36 11 -55 11 -37 13 -52 22 -140 3 -30 9 -69 14 -87 5 -17 7 -34 4
-37 -3 -3 -2 -13 3 -23 9 -22 11 -28 24 -128 12 -95 29 -173 41 -197 5 -10 9
-31 9 -46 0 -37 30 -64 66 -60 24 2 30 9 35 39 8 55 0 109 -17 102 -12 -4 -12
0 -5 20 10 26 9 40 -4 71 -6 13 -4 21 3 24 15 5 15 16 1 65 -5 20 -16 37 -24
37 -20 0 -36 34 -33 73 1 19 -3 47 -9 63 -16 41 -26 84 -28 124 -6 82 -15 152
-22 163 -6 11 -10 58 -14 185 -1 34 -5 65 -9 67 -4 3 -6 30 -4 61 4 45 1 59
-13 69 -12 9 -14 17 -7 26 11 15 10 204 -2 407 -5 77 -3 112 4 112 6 0 14 -4
17 -10 3 -5 17 -10 30 -10 13 0 26 -4 30 -9 19 -31 202 -54 258 -32 16 6 45
11 65 11 20 0 55 7 77 15 22 8 57 14 77 15 20 0 39 4 42 9 7 10 145 28 256 33
56 3 171 -12 219 -28 24 -8 51 -12 58 -10 8 3 24 -3 35 -14 12 -11 29 -20 39
-20 9 0 28 -9 42 -20 14 -11 28 -20 32 -20 4 0 18 -10 30 -22 12 -13 35 -34
51 -48 16 -14 40 -40 54 -59 14 -19 35 -44 48 -56 12 -12 22 -27 22 -33 0 -6
4 -12 8 -14 12 -5 61 -110 68 -146 4 -18 10 -32 15 -32 5 0 9 -6 9 -12 0 -7 6
-25 14 -40 8 -14 19 -48 24 -75 6 -27 16 -62 23 -78 7 -17 13 -41 14 -55 11
-119 18 -181 27 -215 6 -22 11 -57 10 -77 0 -21 4 -38 9 -38 5 0 9 -15 9 -34
0 -19 5 -38 10 -41 6 -4 7 -13 1 -23 -9 -18 -6 -32 10 -67 10 -20 5 -569 -6
-720 -13 -176 -8 -197 47 -210 21 -5 30 -2 42 17 8 13 15 32 14 43 0 22 10 89
19 119 3 11 19 41 34 67 28 45 39 99 19 99 -15 0 -50 -33 -50 -47 0 -17 -15
-16 -30 2 -8 10 -9 19 -3 28 23 29 17 563 -7 647 -5 16 -6 38 -3 50 3 11 0 26
-6 34 -7 8 -13 45 -15 83 -1 37 -8 95 -15 127 -7 32 -10 67 -8 77 3 11 1 19
-4 19 -5 0 -9 13 -9 30 0 16 -4 39 -9 52 -19 47 -24 63 -23 70 3 14 -27 119
-43 150 -8 17 -15 35 -15 40 0 5 -13 35 -29 67 -15 32 -34 74 -40 93 -6 20
-21 44 -31 53 -11 10 -20 24 -20 31 0 29 -116 145 -186 186 -19 11 -34 24 -34
29 0 5 -10 14 -22 20 -13 5 -39 19 -58 29 -19 11 -47 19 -62 20 -15 0 -29 4
-32 9 -3 4 -27 14 -53 21 -27 6 -57 15 -68 20 -36 13 -209 19 -280 8 -22 -3
-67 -9 -100 -13 -33 -4 -71 -11 -85 -16 -14 -5 -34 -10 -45 -12 -11 -2 -27 -7
-35 -10 -20 -7 -106 -25 -155 -32 -22 -3 -52 -8 -67 -11 -15 -3 -33 -2 -40 3
-7 4 -25 8 -40 9 -43 3 -78 14 -78 25 0 14 61 89 72 89 5 0 19 10 31 21 12 12
34 29 48 38 14 9 27 21 28 26 0 6 4 10 9 10 4 0 42 35 86 78 43 42 84 77 92
77 8 0 17 6 20 14 8 20 352 366 364 366 5 0 10 5 10 10 0 14 66 80 80 80 5 0
10 9 10 20 0 11 6 20 13 20 8 0 20 11 27 25 7 14 18 25 24 25 6 0 31 24 56 52
25 29 96 104 158 167 61 63 112 121 112 128 0 7 9 17 20 23 11 6 23 22 26 35
3 14 10 25 15 25 20 0 79 46 79 61 0 9 12 25 26 35 14 10 32 30 39 44 7 15 33
46 57 70 24 25 48 54 53 65 6 11 21 21 33 23 13 2 22 10 22 21 0 10 7 24 15
31 8 7 15 21 15 31 0 10 11 26 24 34 13 9 26 28 29 43 4 17 16 33 31 40 14 6
26 16 26 22 0 7 21 41 48 78 26 36 52 76 58 87 27 51 40 71 57 83 9 7 17 26
17 41 0 15 7 36 15 47 8 10 15 29 15 41 0 12 11 39 25 59 14 20 25 47 25 60 0
12 6 24 13 27 9 3 9 7 0 17 -9 10 -9 19 3 42 11 20 15 63 15 152 0 113 -2 129
-26 183 -15 32 -30 67 -35 78 -4 11 -22 50 -39 86 -17 37 -31 72 -31 78 0 6
-7 14 -15 17 -8 4 -15 15 -15 25 0 10 -6 19 -12 19 -7 0 -29 15 -49 33 -54 49
-145 117 -157 117 -5 0 -12 3 -14 8 -5 11 -92 66 -106 67 -7 0 -16 5 -20 11
-4 6 -33 23 -64 38 -32 14 -58 31 -58 37 0 6 -4 8 -9 4 -6 -3 -25 3 -44 14
-18 10 -49 22 -68 26 -19 4 -45 13 -59 20 -22 12 -61 24 -95 31 -5 1 -12 3
-15 4 -7 3 -37 7 -80 11 -19 2 -37 6 -40 10 -6 8 -335 19 -385 13z m-718
-3536 c-3 -8 -6 -5 -6 6 -1 11 2 17 5 13 3 -3 4 -12 1 -19z"/>
        <path d="M11034 8145 c-4 -9 -2 -28 2 -43 8 -25 9 -410 3 -1022 -2 -293 10
-1088 17 -1110 11 -31 33 -173 29 -180 -3 -4 2 -11 11 -14 9 -3 15 -16 14 -28
-1 -13 -1 -25 0 -28 4 -10 10 -67 14 -131 3 -37 11 -80 19 -95 8 -16 17 -61
21 -101 3 -39 12 -84 20 -100 14 -27 19 -47 53 -228 9 -49 21 -93 26 -96 5 -4
10 -26 11 -50 1 -24 4 -48 8 -54 3 -5 9 -24 12 -42 4 -17 14 -37 22 -44 8 -6
14 -24 14 -39 0 -15 7 -41 15 -56 8 -16 15 -36 15 -44 0 -8 9 -26 20 -40 11
-14 20 -32 20 -42 0 -9 5 -18 12 -20 6 -2 12 -22 12 -44 1 -30 8 -45 29 -62
15 -13 27 -32 27 -42 0 -22 51 -44 85 -36 13 3 29 15 35 27 10 17 7 24 -13 43
-14 13 -28 32 -31 44 -4 11 -13 26 -21 32 -8 7 -15 23 -15 36 0 13 -12 48 -27
76 -49 97 -53 106 -53 126 0 12 -4 24 -10 27 -5 3 -10 15 -10 26 0 10 -4 19
-10 19 -5 0 -10 13 -10 29 0 17 -4 33 -10 36 -5 3 -10 17 -10 30 0 13 -4 27
-10 30 -5 3 -10 15 -10 25 0 10 -5 20 -11 22 -6 2 -11 20 -11 41 0 20 -4 37
-9 37 -5 0 -9 13 -9 28 0 46 -22 142 -32 142 -6 0 -7 11 -4 25 4 14 2 25 -3
25 -5 0 -12 17 -15 38 -3 20 -8 48 -10 62 -2 14 -7 34 -10 45 -19 68 -26 110
-21 123 3 8 1 20 -4 26 -13 16 -31 110 -31 160 0 24 -7 62 -14 84 -8 23 -18
97 -21 164 -11 198 -11 202 -18 218 -3 8 -6 29 -6 45 -2 45 -9 180 -11 180 -1
0 -11 225 -10 240 0 13 0 423 -1 455 0 14 3 97 7 185 4 88 8 185 8 215 1 30 6
59 13 65 9 7 10 21 3 50 -5 24 -5 44 0 50 6 7 6 15 0 21 -7 7 -6 30 1 68 8 44
8 61 -1 66 -9 5 -6 19 10 50 20 38 20 46 9 93 -7 29 -21 64 -31 79 -10 14 -18
31 -18 37 0 13 -48 61 -61 61 -5 0 -12 -7 -15 -15z"/>
        <path d="M7179 7839 c-19 -27 -20 -39 -15 -112 7 -92 7 -177 0 -188 -9 -16 -2
-380 9 -456 2 -12 9 -28 16 -36 7 -9 8 -18 3 -21 -6 -4 -6 -20 -1 -43 12 -48
12 -231 0 -303 -5 -30 -7 -58 -5 -62 2 -4 -2 -44 -10 -90 -8 -46 -17 -114 -21
-152 -3 -38 -8 -73 -11 -77 -5 -9 -23 -99 -30 -154 -3 -22 -9 -42 -14 -45 -5
-3 -14 -37 -21 -75 -6 -39 -18 -79 -25 -91 -8 -11 -15 -34 -17 -52 -2 -17 -11
-40 -20 -49 -8 -10 -18 -35 -22 -55 -4 -21 -11 -38 -16 -38 -4 0 -13 -18 -19
-40 -6 -21 -15 -42 -20 -45 -6 -3 -10 -15 -10 -25 0 -11 -9 -36 -20 -55 -11
-20 -18 -40 -16 -44 3 -4 -3 -15 -12 -24 -31 -29 -43 -47 -37 -56 3 -5 -5 -22
-18 -38 -12 -15 -29 -41 -37 -58 -8 -16 -53 -81 -100 -143 -47 -63 -89 -121
-95 -131 -16 -26 -202 -211 -214 -211 -5 0 -16 -6 -23 -13 -7 -6 -38 -32 -68
-57 -30 -25 -57 -47 -60 -50 -13 -13 -94 -50 -111 -50 -10 0 -19 -4 -19 -10 0
-5 -18 -10 -39 -10 -30 0 -48 7 -73 30 l-33 31 0 97 c0 97 1 97 38 146 37 48
48 86 25 86 -6 0 -19 7 -29 16 -17 15 -20 13 -49 -32 -16 -26 -30 -56 -30 -66
0 -10 -7 -18 -15 -18 -9 0 -18 -7 -21 -15 -4 -8 -12 -15 -20 -15 -8 0 -14 -7
-14 -15 0 -18 -36 -52 -77 -72 -18 -8 -33 -19 -33 -24 0 -7 -66 -63 -135 -115
-40 -30 -96 -64 -103 -62 -4 1 -15 -2 -25 -7 -52 -22 -119 36 -132 115 -4 25
-11 38 -17 33 -12 -6 -4 10 15 35 6 7 12 27 14 43 2 17 17 65 34 107 17 43 32
82 33 89 1 7 5 16 9 19 4 4 7 22 7 39 0 17 3 35 7 39 4 4 9 19 11 34 2 14 7
31 12 37 8 10 16 34 46 145 21 75 21 193 -1 255 -32 95 -86 124 -220 120 -84
-2 -158 -19 -209 -47 -11 -7 -23 -12 -26 -13 -7 0 -84 -48 -90 -55 -3 -3 -23
-19 -45 -35 -22 -17 -62 -53 -90 -81 -162 -166 -215 -225 -215 -238 0 -8 -5
-18 -10 -21 -13 -8 -40 -72 -40 -96 0 -11 5 -19 11 -19 5 0 7 -4 4 -10 -18
-30 62 -83 84 -56 12 15 -5 37 -23 30 -7 -3 -11 17 -12 61 -1 37 3 62 8 59 5
-4 8 4 6 17 -2 13 2 24 9 24 11 0 114 85 137 113 6 7 17 18 24 25 57 52 112
109 112 117 0 6 5 10 11 10 6 0 22 9 36 20 14 11 34 20 44 20 11 0 19 7 19 15
0 9 12 18 30 22 17 3 30 9 30 14 0 5 6 9 13 9 7 0 32 9 56 20 24 12 50 18 62
15 11 -4 26 -1 34 5 14 11 47 10 121 -6 90 -18 86 -221 -8 -448 -12 -30 -18
-60 -14 -77 3 -18 0 -34 -10 -43 -8 -8 -23 -43 -34 -77 -11 -34 -24 -67 -30
-74 -5 -6 -7 -21 -3 -33 3 -13 -2 -33 -12 -48 -24 -37 -25 -118 -3 -152 10
-15 18 -41 18 -57 0 -19 7 -34 19 -40 10 -6 37 -20 59 -32 43 -24 76 -24 127
-3 17 7 37 12 46 11 10 -1 46 25 80 58 35 33 87 78 116 100 28 22 54 49 58 61
3 11 9 20 13 20 4 0 21 12 37 26 l30 26 5 -89 5 -89 54 -52 c30 -29 62 -52 72
-52 10 0 20 -4 23 -9 9 -13 90 -5 124 13 17 9 38 16 46 16 8 0 19 6 23 14 8
15 60 53 146 107 26 17 47 34 47 37 0 4 16 18 35 31 19 13 35 30 35 37 0 7 9
18 21 24 30 17 78 71 85 98 3 12 11 22 18 22 16 1 62 51 70 76 4 12 15 24 25
27 10 2 24 18 32 36 8 17 17 31 21 31 5 0 8 6 8 13 0 8 9 22 20 32 11 10 32
43 48 74 15 31 32 61 39 66 20 17 51 82 59 120 3 20 13 39 20 42 8 3 14 13 14
22 0 9 9 24 20 34 11 9 20 28 20 42 0 16 6 25 15 25 9 0 15 6 14 13 -3 15 11
69 22 82 4 6 15 33 24 60 9 28 22 64 30 80 22 50 48 128 50 155 1 14 10 54 19
90 54 206 64 257 71 380 10 179 15 210 35 210 13 0 17 -6 13 -18 -2 -10 3 -24
11 -31 9 -8 16 -20 16 -28 0 -7 7 -16 15 -19 8 -4 15 -14 15 -24 0 -9 9 -29
20 -43 11 -14 20 -30 20 -36 0 -6 11 -18 25 -27 14 -9 28 -26 31 -38 6 -20
157 -160 185 -171 8 -3 23 -19 34 -35 11 -17 34 -35 52 -40 17 -6 34 -18 37
-27 3 -8 12 -13 19 -10 7 3 33 -10 58 -29 24 -19 68 -46 97 -60 29 -15 61 -37
70 -49 20 -25 73 -55 97 -55 9 0 19 -9 22 -20 4 -15 11 -19 24 -15 11 4 19 2
19 -3 0 -5 26 -23 58 -38 31 -16 59 -32 60 -36 2 -5 10 -8 18 -8 8 0 17 -7 20
-15 4 -8 12 -15 20 -15 8 0 14 -4 14 -10 0 -5 8 -10 18 -10 10 0 25 -8 34 -17
9 -10 42 -36 74 -58 31 -22 98 -79 147 -127 49 -49 93 -88 98 -88 11 0 239
-230 239 -241 0 -5 27 -48 60 -96 33 -47 60 -94 60 -103 0 -9 7 -25 15 -36 8
-10 15 -31 15 -46 0 -16 4 -28 9 -28 11 0 51 -122 51 -155 0 -14 4 -25 9 -25
6 0 9 -8 9 -17 -1 -10 4 -58 10 -108 6 -49 10 -133 9 -185 -2 -94 -2 -95 -27
-98 -14 -2 -34 -15 -44 -30 -10 -15 -45 -47 -77 -72 -32 -24 -59 -48 -59 -52
0 -5 -24 -32 -52 -62 -50 -51 -65 -69 -135 -156 -15 -19 -30 -37 -33 -40 -3
-3 -27 -36 -55 -74 -27 -38 -60 -79 -72 -93 -13 -13 -23 -26 -23 -28 0 -8 -80
-124 -90 -130 -5 -3 -10 -14 -10 -24 0 -10 -10 -29 -22 -43 -39 -43 -68 -87
-68 -103 0 -9 -6 -18 -14 -21 -8 -3 -22 -22 -31 -42 -9 -20 -32 -66 -51 -102
-18 -36 -34 -71 -34 -78 0 -7 -6 -15 -14 -18 -8 -3 -18 -24 -22 -47 -3 -23
-12 -51 -20 -62 -7 -11 -16 -40 -20 -63 -4 -24 -13 -46 -20 -49 -8 -3 -14 -11
-14 -19 0 -8 -18 -56 -40 -108 -22 -51 -40 -100 -40 -107 0 -8 -7 -27 -16 -44
-13 -22 -18 -67 -22 -171 -4 -139 -4 -141 19 -158 31 -21 55 -20 79 4 11 11
22 20 25 20 26 0 237 206 256 249 8 17 18 31 23 31 10 0 12 2 91 106 33 43 62
81 66 84 13 12 69 99 69 109 0 5 6 14 13 18 8 4 29 34 48 66 18 31 37 57 41
57 5 0 8 9 8 20 0 11 5 20 10 20 6 0 10 6 10 14 0 8 6 21 13 28 7 7 24 36 37
63 13 28 37 73 53 100 16 28 36 68 44 90 7 21 22 47 33 57 11 11 20 27 20 38
0 10 4 21 10 25 5 3 7 12 4 19 -3 7 2 16 10 19 9 4 16 18 16 32 0 14 4 25 8
25 10 0 58 105 67 148 4 17 10 32 15 32 4 0 11 17 15 38 3 20 13 48 22 60 8
13 12 26 9 29 -3 4 -1 12 5 19 6 8 9 20 6 29 -4 8 -2 17 3 20 6 4 10 19 10 34
0 15 7 42 15 59 9 18 18 68 20 123 3 50 10 98 16 105 6 7 8 18 4 23 -3 6 0 9
7 6 14 -5 68 38 68 55 0 5 5 10 11 10 7 0 38 27 69 60 31 33 62 60 67 60 6 0
18 11 27 25 9 14 22 25 29 25 6 1 30 19 52 40 22 22 42 40 46 40 3 0 18 11 33
25 15 14 31 25 36 25 5 0 11 9 15 19 3 11 15 23 25 26 10 3 22 15 25 25 3 11
12 17 20 14 7 -3 16 3 20 15 3 12 13 21 21 21 8 0 14 7 14 15 0 8 6 15 13 15
6 0 40 26 73 58 34 31 79 71 100 87 51 39 174 164 174 176 0 18 -31 9 -56 -16
-14 -14 -29 -25 -33 -25 -5 0 -16 -11 -25 -25 -9 -14 -31 -31 -49 -39 -17 -7
-57 -36 -87 -63 -30 -28 -64 -53 -76 -57 -12 -3 -26 -18 -32 -31 -6 -14 -17
-25 -23 -25 -6 0 -24 -14 -41 -31 -17 -17 -43 -38 -57 -47 -50 -32 -112 -82
-158 -127 -26 -25 -50 -45 -54 -45 -4 0 -20 -12 -36 -27 -123 -119 -200 -180
-211 -169 -3 4 -7 27 -9 54 -1 26 -4 58 -7 72 -2 14 -7 54 -11 90 -4 36 -12
73 -17 84 -6 10 -12 36 -14 58 -2 22 -12 52 -22 66 -10 15 -17 42 -16 60 1 17
-1 32 -4 32 -8 0 -27 44 -36 82 -3 15 -12 33 -20 40 -7 7 -18 29 -25 48 -11
36 -81 128 -107 143 -8 4 -14 14 -14 21 0 8 -38 53 -85 101 -47 49 -85 92 -85
97 0 4 -4 8 -9 8 -5 0 -24 12 -42 28 -72 60 -224 197 -227 204 -2 5 -10 8 -18
8 -8 0 -14 5 -14 10 0 6 -6 10 -13 10 -8 0 -22 9 -32 20 -10 11 -26 20 -37 20
-10 0 -18 4 -18 10 0 5 -15 16 -34 24 -19 8 -43 23 -53 33 -10 10 -33 25 -51
32 -18 7 -32 17 -32 22 0 5 -5 9 -11 9 -6 0 -47 22 -92 48 -45 26 -98 56 -118
65 -20 9 -39 23 -42 30 -2 7 -22 21 -43 32 -22 11 -57 35 -78 53 -22 17 -48
32 -58 32 -10 0 -18 5 -18 10 0 6 -6 10 -13 10 -8 0 -24 11 -37 25 -13 14 -29
25 -35 25 -7 0 -47 35 -91 78 -77 76 -155 162 -147 162 3 0 -5 12 -16 26 -12
15 -21 31 -21 37 0 5 -6 15 -14 21 -7 6 -26 40 -41 76 -15 36 -31 72 -36 80
-5 8 -11 20 -13 25 -18 52 -26 86 -26 113 0 17 -4 33 -9 36 -4 3 -6 25 -4 48
2 24 3 48 3 53 0 6 -2 91 -5 190 -5 206 -15 458 -18 495 -2 14 -8 38 -15 53
-7 16 -12 32 -12 36 0 5 -9 11 -20 14 -14 4 -26 -3 -41 -24z m1996 -3709 c-10
-41 -23 -79 -30 -85 -6 -5 -15 -35 -18 -65 -4 -31 -13 -60 -22 -66 -8 -6 -15
-23 -15 -37 0 -14 -4 -29 -10 -32 -5 -3 -10 -14 -10 -23 0 -10 -16 -48 -35
-85 -19 -37 -35 -73 -35 -80 0 -8 -9 -24 -20 -37 -11 -13 -20 -30 -20 -39 0
-9 -7 -27 -16 -39 -8 -12 -13 -26 -9 -31 3 -5 -3 -16 -13 -23 -10 -7 -42 -62
-72 -121 -29 -59 -62 -117 -72 -129 -10 -12 -18 -29 -18 -39 0 -11 -9 -24 -20
-31 -11 -7 -20 -20 -20 -29 0 -9 -8 -25 -17 -37 -17 -19 -71 -100 -118 -177
-24 -39 -108 -138 -152 -181 -18 -17 -33 -35 -33 -41 0 -11 -138 -153 -204
-210 -40 -35 -56 -41 -56 -20 1 70 55 287 72 287 4 0 8 9 8 19 0 11 5 23 10
26 6 3 10 19 10 34 0 15 4 31 9 37 5 5 23 49 40 98 17 49 35 94 40 100 4 6 16
35 25 64 10 28 21 52 25 52 4 0 13 16 20 36 7 20 24 52 37 71 13 20 24 41 24
48 0 7 7 19 16 26 9 8 25 33 35 57 10 24 26 50 34 58 8 9 15 22 15 30 0 8 4
14 8 14 5 0 19 21 32 46 13 25 34 54 47 64 13 10 23 24 23 31 0 8 11 27 25 43
14 16 25 33 25 38 0 4 17 25 38 46 21 21 58 67 82 102 25 35 59 78 76 95 18
18 35 42 39 54 3 11 13 21 21 21 8 0 14 4 14 9 0 5 18 22 40 38 22 15 40 33
40 38 0 6 26 33 57 62 l58 51 3 -31 c2 -18 -4 -66 -13 -107z m-518 -1212 c-3
-8 -6 -5 -6 6 -1 11 2 17 5 13 3 -3 4 -12 1 -19z"/>
        <path d="M16419 5778 c-10 -18 -8 -24 10 -39 11 -9 21 -21 21 -26 0 -5 11 -16
25 -23 14 -8 24 -18 22 -24 -2 -6 13 -42 33 -81 33 -62 41 -70 69 -73 27 -3
31 0 31 21 0 29 -70 149 -106 182 -13 12 -24 29 -24 38 0 9 -14 23 -32 31 -39
20 -35 20 -49 -6z"/>
        <path d="M3915 5621 c-3 -6 -17 -11 -29 -11 -25 0 -166 -133 -166 -157 0 -7
-9 -18 -20 -25 -11 -7 -20 -21 -20 -30 0 -10 -4 -18 -10 -18 -5 0 -10 -6 -10
-14 0 -7 -20 -54 -44 -102 -52 -106 -80 -173 -96 -234 -29 -108 -29 -260 1
-296 5 -6 7 -18 3 -27 -7 -18 33 -81 66 -104 12 -8 50 -17 84 -19 l63 -4 61
59 c42 39 64 69 68 90 4 17 15 36 25 42 11 5 19 16 19 24 0 8 5 15 10 15 6 0
10 7 10 14 0 8 11 27 25 42 13 14 22 30 20 35 -3 4 3 24 14 44 l19 36 1 -62
c1 -102 22 -232 42 -267 10 -18 19 -39 19 -46 0 -22 98 -142 127 -155 16 -7
43 -20 61 -29 18 -8 52 -16 75 -18 23 -1 47 -3 52 -4 6 -1 12 -1 15 0 3 1 14
3 25 5 11 2 40 9 65 15 25 7 57 12 72 11 18 0 29 6 33 18 3 12 19 21 39 25 19
4 45 15 59 26 14 11 35 20 46 20 12 0 21 5 21 11 0 16 54 79 68 79 7 0 15 7
19 17 3 9 21 31 38 49 25 26 32 42 33 78 1 25 -3 48 -9 52 -15 9 -39 -23 -39
-51 0 -13 -16 -35 -40 -55 -22 -18 -40 -42 -40 -52 0 -12 -7 -18 -23 -18 -14
0 -41 -16 -63 -37 -29 -28 -63 -46 -126 -67 -48 -16 -94 -26 -102 -23 -8 3
-18 2 -21 -2 -8 -14 -160 -4 -193 13 -16 8 -32 12 -35 9 -4 -3 -10 3 -14 13
-3 10 -21 41 -39 67 -19 27 -36 65 -39 85 -3 20 -11 45 -16 56 -6 10 -12 41
-15 69 -2 28 -6 52 -8 55 -3 2 -1 14 4 27 5 12 5 26 0 31 -5 5 -5 29 0 54 4
25 5 50 1 55 -4 6 -6 26 -5 45 4 54 -19 98 -50 98 -25 0 -56 -33 -56 -61 0 -8
-25 -58 -55 -113 -30 -54 -57 -111 -60 -126 -4 -14 -13 -29 -21 -32 -8 -3 -14
-11 -14 -19 0 -7 -11 -24 -25 -37 -13 -12 -22 -27 -19 -31 2 -5 -4 -14 -16
-21 -11 -7 -20 -18 -20 -25 0 -15 -71 -53 -99 -53 -22 0 -53 39 -58 72 -2 10
-10 33 -19 50 -12 22 -14 43 -9 72 4 23 8 55 9 71 7 72 43 195 58 195 6 0 8 9
5 21 -3 12 0 22 9 26 8 3 14 14 14 25 0 12 7 26 14 32 8 6 16 25 18 41 2 17 9
36 16 43 6 7 12 22 12 33 0 10 5 19 10 19 6 0 10 7 10 15 0 9 7 18 15 21 8 4
23 23 32 43 9 20 36 56 60 80 41 41 46 43 85 37 61 -10 115 -44 184 -116 19
-19 34 -41 34 -48 0 -7 7 -24 16 -37 9 -14 13 -25 9 -25 -4 0 -3 -6 3 -12 5
-7 13 -35 17 -63 3 -27 16 -65 28 -85 12 -19 20 -41 19 -49 -5 -22 22 -6 35
21 10 21 10 34 -3 74 -8 27 -19 57 -24 66 -5 9 -13 35 -16 58 -4 26 -12 40
-22 40 -11 0 -12 3 -4 13 8 9 7 20 -3 37 -8 14 -20 35 -26 48 -7 12 -16 22
-20 22 -4 0 -29 20 -56 45 -26 25 -59 47 -73 51 -14 3 -32 9 -40 13 -30 16
-78 22 -85 12z"/>
        <path d="M12141 5530 c-35 -8 -116 -88 -142 -139 -8 -14 -17 -28 -20 -31 -4
-3 -13 -21 -21 -40 -12 -27 -13 -52 -6 -115 13 -129 35 -158 162 -223 55 -28
156 -36 178 -14 6 6 19 12 28 12 9 0 35 9 58 20 22 11 47 20 55 20 8 0 20 7
27 15 18 21 30 19 30 -6 0 -11 9 -32 20 -46 11 -14 20 -32 20 -40 0 -8 7 -21
15 -29 8 -9 15 -24 15 -35 0 -10 6 -19 13 -19 7 0 18 -9 25 -20 15 -24 35 -26
52 -5 8 10 17 12 24 6 44 -35 208 -25 257 16 8 7 22 13 30 13 31 0 93 29 109
49 12 17 22 21 43 16 17 -5 27 -3 27 4 0 6 10 16 23 21 12 6 36 18 52 28 56
33 125 55 161 49 19 -3 34 -3 34 1 0 9 76 7 113 -3 20 -5 27 -4 27 8 0 12 8
13 43 7 40 -7 117 -6 222 5 28 2 95 5 149 7 91 2 100 0 117 -20 9 -12 20 -22
24 -22 20 0 105 -44 105 -55 0 -7 30 -25 66 -39 37 -15 80 -40 96 -56 16 -17
36 -30 44 -30 8 0 14 -3 14 -8 0 -4 16 -16 36 -27 20 -10 53 -35 73 -55 21
-19 52 -46 70 -60 17 -14 31 -29 31 -35 0 -5 16 -25 35 -44 19 -19 35 -39 35
-46 0 -6 9 -20 20 -30 11 -10 22 -27 26 -39 10 -30 86 -126 101 -126 7 0 13
-4 13 -9 0 -5 29 -40 65 -77 36 -38 65 -76 65 -84 0 -9 8 -23 18 -32 34 -34
50 -54 65 -85 9 -17 23 -37 31 -45 7 -8 23 -32 35 -54 57 -105 84 -149 92
-152 5 -2 9 -10 9 -17 0 -7 3 -15 8 -17 10 -4 61 -108 68 -141 3 -15 10 -29
14 -32 5 -3 18 -24 29 -48 20 -41 25 -116 9 -132 -4 -4 -4 -13 -1 -21 3 -8 1
-14 -5 -14 -6 0 -13 -19 -17 -42 -4 -24 -12 -49 -18 -56 -6 -8 -12 -21 -13
-30 -1 -10 -7 -39 -14 -67 -6 -27 -12 -57 -14 -66 -1 -9 -10 -29 -20 -44 -10
-16 -19 -40 -20 -55 -1 -15 -6 -33 -12 -41 -7 -8 -12 -34 -11 -58 0 -29 -5
-47 -16 -52 -8 -5 -18 -23 -22 -39 -4 -16 -11 -32 -16 -35 -5 -4 -5 -13 1 -24
7 -14 3 -31 -14 -64 -14 -28 -21 -59 -20 -81 2 -20 -1 -36 -6 -36 -6 0 -10 -9
-10 -20 0 -24 -16 -94 -42 -180 -11 -36 -21 -95 -21 -132 -1 -42 -6 -68 -13
-68 -12 0 -42 -96 -48 -155 -5 -55 -17 -108 -27 -120 -9 -12 -30 -123 -34
-180 -2 -22 -8 -53 -15 -70 -6 -16 -13 -64 -16 -105 -2 -41 -9 -108 -14 -149
-6 -41 -7 -77 -3 -80 12 -9 13 -64 2 -77 -15 -18 13 -272 41 -369 6 -22 15
-57 21 -77 5 -21 18 -52 29 -70 11 -18 20 -40 20 -49 0 -26 75 -104 101 -106
25 -2 59 27 59 51 0 8 4 17 9 20 4 3 11 25 15 48 4 23 15 56 25 73 10 16 22
43 26 60 3 16 11 36 17 43 6 7 12 25 13 41 1 15 10 43 18 62 9 19 21 57 28 84
7 28 15 55 20 60 4 6 10 27 14 47 4 21 13 42 21 49 8 6 11 15 9 20 -3 4 -1 16
4 26 24 46 42 103 51 157 5 32 13 63 18 70 5 6 13 40 16 74 4 35 12 75 17 89
9 24 27 130 35 201 2 18 7 38 11 45 4 6 8 18 8 27 11 111 26 313 29 380 2 47
7 96 10 110 6 24 24 187 30 281 2 26 7 52 10 58 4 6 0 14 -9 17 -12 5 -13 9
-4 20 8 10 9 41 5 101 -4 49 -8 99 -8 113 0 25 -14 151 -24 225 -3 22 -9 42
-14 45 -4 3 -11 22 -15 42 -4 21 -13 42 -20 48 -8 6 -17 30 -20 53 -4 23 -13
49 -20 57 -20 24 -23 43 -12 70 5 14 20 61 32 105 13 44 30 105 40 135 9 30
19 69 22 85 3 17 9 35 13 40 4 6 10 22 14 38 3 15 11 27 16 27 5 0 7 13 4 28
-4 18 1 40 15 62 11 19 27 62 35 94 9 33 20 62 25 65 5 4 13 20 17 36 4 17 16
44 26 60 10 17 18 38 18 48 0 10 7 20 15 23 8 3 17 16 21 27 12 43 88 147 99
136 7 -7 6 -12 -3 -18 -12 -7 -15 -58 -10 -156 6 -97 61 -144 130 -109 33 16
158 138 158 154 0 5 9 11 20 15 11 3 27 18 36 33 35 58 137 108 168 83 6 -5
25 -12 43 -15 17 -4 37 -14 44 -22 6 -8 17 -14 24 -14 32 0 105 -111 105 -160
0 -32 28 -56 49 -43 19 13 17 57 -5 90 -8 12 -14 32 -14 43 0 28 -67 110 -90
110 -9 0 -25 9 -35 20 -10 11 -24 20 -31 20 -7 0 -30 9 -49 20 -50 28 -125 19
-176 -21 -20 -16 -41 -29 -45 -29 -14 0 -122 -121 -138 -155 -9 -19 -30 -37
-55 -48 -45 -20 -62 -17 -54 12 3 10 1 21 -4 24 -5 3 -7 32 -5 64 3 32 4 74 4
93 -1 19 8 54 19 78 11 24 19 48 18 55 -3 19 13 71 27 87 7 8 14 26 16 40 2
14 11 36 21 50 24 35 21 59 -10 71 -36 13 -50 6 -58 -30 -3 -16 -13 -35 -21
-42 -8 -7 -23 -28 -32 -48 -26 -55 -105 -184 -124 -203 -10 -10 -18 -23 -18
-29 0 -6 -11 -24 -25 -41 -14 -16 -25 -36 -25 -43 0 -8 -6 -18 -12 -22 -17
-10 -38 -49 -38 -68 0 -8 -4 -15 -10 -15 -5 0 -10 -9 -10 -20 0 -10 -9 -24
-19 -30 -12 -6 -22 -26 -26 -50 -4 -22 -11 -42 -16 -46 -5 -3 -9 -13 -9 -22 0
-9 -6 -29 -14 -44 -18 -34 -46 -130 -46 -156 0 -11 -7 -23 -16 -26 -11 -4 -14
-13 -10 -31 4 -14 3 -25 -2 -25 -8 0 -26 -56 -38 -120 -3 -19 -12 -42 -18 -50
-7 -8 -13 -27 -14 -41 -1 -15 -6 -39 -12 -54 -9 -23 -13 -25 -25 -15 -8 7 -15
22 -15 35 0 12 -11 34 -25 49 -14 15 -25 35 -25 45 0 10 -9 26 -19 35 -11 10
-33 45 -49 79 -16 34 -39 73 -51 86 -11 13 -21 32 -21 41 0 9 -11 27 -25 40
-14 13 -25 29 -25 36 0 7 -8 19 -17 26 -10 7 -24 25 -32 40 -7 14 -26 40 -41
57 -16 17 -43 51 -61 76 -18 25 -36 45 -40 45 -16 0 -111 106 -126 142 -12 28
-66 102 -111 154 -15 17 -44 52 -66 78 -21 25 -45 46 -52 46 -8 0 -19 9 -26
20 -7 11 -19 20 -27 20 -7 0 -24 11 -37 25 -13 14 -27 25 -31 25 -4 1 -24 14
-43 30 -19 17 -37 30 -41 30 -5 0 -112 59 -226 126 -18 10 -33 22 -33 27 0 4
-8 7 -18 7 -10 0 -22 4 -28 8 -18 17 -90 28 -154 26 -36 -2 -119 -6 -185 -9
-66 -4 -176 -9 -245 -11 -194 -6 -215 -10 -282 -42 -35 -17 -91 -42 -125 -56
-35 -13 -76 -34 -92 -45 -16 -12 -33 -21 -38 -21 -5 0 -28 -9 -50 -20 -79 -38
-195 -41 -229 -7 -4 4 -14 7 -23 7 -20 0 -71 82 -71 113 0 28 -47 83 -81 96
-20 7 -30 23 -45 70 -10 34 -24 61 -30 61 -6 0 -17 14 -24 30 -7 17 -16 30
-21 30 -5 0 -9 7 -9 16 0 20 -67 96 -125 141 -46 36 -83 46 -134 33z m84 -78
c6 -4 33 -36 60 -72 28 -36 53 -66 58 -68 4 -2 7 -10 7 -17 0 -8 7 -21 16 -30
21 -21 84 -146 79 -155 -3 -4 -19 -10 -36 -14 -18 -3 -39 -12 -47 -19 -18 -15
-124 -38 -172 -37 -23 0 -53 13 -86 35 -44 31 -53 42 -66 90 -9 31 -12 58 -7
61 5 3 9 25 9 50 0 30 5 46 15 50 8 4 15 13 15 21 0 33 44 93 74 102 39 12 68
13 81 3z m3231 -2108 c-3 -7 1 -18 9 -24 8 -6 17 -33 20 -58 4 -26 9 -54 12
-62 4 -8 7 -24 8 -35 1 -11 8 -60 15 -110 12 -86 16 -348 5 -364 -2 -5 -7 -59
-10 -121 -3 -62 -9 -118 -14 -124 -5 -6 -10 -31 -11 -56 -7 -202 -21 -382 -31
-401 -4 -9 -6 -18 -4 -21 2 -2 -3 -49 -12 -103 -9 -55 -17 -109 -18 -120 -1
-11 -7 -31 -12 -45 -6 -14 -14 -54 -18 -90 -4 -36 -13 -74 -20 -86 -7 -11 -17
-42 -20 -69 -4 -26 -14 -60 -21 -74 -8 -14 -14 -34 -14 -44 0 -10 -9 -35 -20
-57 -11 -22 -20 -46 -20 -54 0 -8 -9 -36 -21 -63 -11 -26 -22 -60 -24 -74 -2
-15 -13 -44 -24 -65 -12 -21 -21 -51 -21 -65 0 -15 -7 -32 -15 -39 -9 -7 -15
-29 -15 -52 0 -24 -5 -41 -15 -44 -8 -3 -17 -26 -21 -50 -3 -24 -10 -47 -15
-49 -19 -12 -60 66 -80 151 -26 118 -28 131 -35 254 -4 58 -11 111 -17 118 -7
9 -7 16 0 23 6 6 8 24 3 45 -5 19 -4 34 1 34 5 0 9 65 9 144 0 79 5 168 10
197 6 30 11 69 12 87 1 18 5 35 10 38 4 3 8 28 8 55 0 27 9 77 21 111 12 35
18 74 15 89 -3 16 2 41 11 59 8 18 17 51 18 74 1 22 7 54 14 69 6 16 11 37 11
47 0 10 5 22 11 26 6 3 9 15 6 25 -3 10 -2 21 3 24 4 2 10 24 14 47 12 86 18
113 28 131 5 10 11 50 12 90 2 40 9 85 15 101 6 16 9 31 7 34 -3 2 1 14 9 26
8 11 15 27 15 34 0 8 9 25 20 39 11 14 20 40 20 57 0 17 7 40 15 50 8 11 15
29 15 40 0 12 9 47 20 79 11 32 19 62 19 65 -2 14 14 52 21 52 4 0 10 18 14
40 3 22 14 49 24 60 17 21 18 24 21 58 1 12 6 9 16 -12 9 -16 14 -35 11 -42z"/>
        <path d="M4677 5063 c3 -8 8 -11 11 -9 3 3 11 1 18 -5 9 -8 11 -5 7 10 -3 11
-13 19 -23 18 -10 -1 -16 -7 -13 -14z"/>
    </g>
</svg>
