<?xml version="1.0" standalone="no"?>
<!DOCTYPE svg PUBLIC "-//W3C//DTD SVG 20010904//EN"
 "http://www.w3.org/TR/2001/REC-SVG-20010904/DTD/svg10.dtd">
<svg version="1.0" xmlns="http://www.w3.org/2000/svg"
 width="1024.000000pt" height="1024.000000pt" viewBox="0 0 1024.000000 1024.000000"
 preserveAspectRatio="xMidYMid meet">
<metadata>
Created by potrace 1.11, written by Peter Selinger 2001-2013
</metadata>
<g transform="translate(0.000000,1024.000000) scale(0.100000,-0.100000)"
fill="#000000" stroke="none">
<path d="M10153 7759 c-214 -112 -368 -278 -459 -494 -16 -38 -29 -72 -30 -75
0 -3 -6 -23 -12 -45 -6 -22 -14 -58 -18 -80 -3 -22 -8 -43 -11 -48 -5 -9 -5
-234 0 -262 3 -11 8 -42 12 -70 9 -66 90 -365 117 -435 95 -244 236 -415 441
-534 l47 -28 0 1056 c0 581 -2 1056 -5 1056 -2 0 -39 -18 -82 -41z"/>
<path d="M5730 7289 c-36 -5 -83 -11 -105 -13 -22 -3 -47 -7 -55 -10 -8 -3
-31 -7 -50 -10 -83 -12 -406 -105 -435 -126 -5 -3 -32 -15 -60 -24 -128 -46
-353 -179 -490 -289 -62 -51 -197 -185 -251 -252 -35 -43 -131 -183 -171 -250
-87 -146 -176 -397 -199 -560 -3 -27 -9 -59 -11 -70 -9 -38 -10 -301 -2 -385
11 -105 44 -269 75 -372 13 -43 35 -115 49 -160 96 -310 279 -627 544 -943 71
-85 343 -362 441 -450 216 -193 552 -463 730 -585 19 -14 40 -28 45 -33 27
-23 181 -127 187 -127 8 0 -16 -65 -53 -146 -54 -117 -168 -278 -249 -352 -34
-31 -167 -132 -174 -132 -3 0 -27 -13 -53 -28 -70 -41 -217 -99 -335 -132 -96
-27 -122 -33 -188 -46 -14 -2 -47 -9 -75 -14 -27 -5 -72 -12 -100 -15 -27 -4
-61 -8 -75 -10 -108 -18 -476 -24 -672 -12 l-97 7 5 -48 c2 -26 6 -72 9 -102
3 -30 8 -80 10 -110 3 -30 7 -73 10 -95 2 -22 7 -67 10 -100 3 -33 8 -78 10
-100 2 -22 7 -71 10 -110 8 -96 14 -138 21 -144 15 -16 670 -4 774 13 14 3 45
7 70 10 49 7 87 13 140 22 19 4 42 8 50 9 8 1 26 5 40 8 14 3 61 13 105 22 79
17 263 70 347 100 24 9 48 17 53 19 40 12 181 75 265 120 332 174 578 424 812
823 l59 102 67 -43 c166 -108 433 -224 619 -270 189 -47 267 -55 493 -51 181
3 256 11 455 50 66 13 287 76 385 110 274 94 549 225 795 378 140 88 167 108
157 120 -5 7 -41 82 -80 167 -39 85 -86 189 -105 230 -53 114 -101 219 -127
276 l-24 52 -85 -58 c-161 -107 -275 -174 -441 -255 -171 -84 -210 -101 -355
-151 -536 -185 -906 -152 -1261 112 -49 36 -90 67 -92 69 -2 2 247 573 323
740 93 203 213 573 264 816 60 282 75 425 75 719 1 196 -3 273 -18 380 -2 14
-7 50 -10 80 -11 88 -65 314 -103 429 -37 113 -145 346 -196 421 -216 321
-487 536 -846 675 -100 39 -206 67 -336 91 -104 19 -424 27 -525 13z"/>
<path d="M838 5274 c-2 -1 -25 -5 -53 -8 -81 -10 -116 -17 -194 -38 -216 -59
-379 -148 -516 -281 l-75 -73 0 -720 0 -721 49 -69 c190 -270 492 -419 826
-409 132 4 170 9 298 41 527 132 839 499 838 984 -1 128 -13 199 -71 415 -97
359 -194 520 -425 703 -5 5 -37 24 -70 44 -102 59 -227 103 -355 124 -43 7
-247 14 -252 8z"/>
</g>
</svg>
